<?xml version="1.0" encoding="UTF-8" standalone="no"?>
<svg
   version="1.0"
   width="1173.000000pt"
   height="1173.000000pt"
   viewBox="0 0 1173.000000 1173.000000"
   preserveAspectRatio="xMidYMid meet"
   id="svg10"
   sodipodi:docname="logo-minautore.svg"
   inkscape:version="1.3 (0e150ed, 2023-07-21)"
   inkscape:export-filename="../my-drive/hosting/logo-minautore.png"
   inkscape:export-xdpi="96"
   inkscape:export-ydpi="96"
   xmlns:inkscape="http://www.inkscape.org/namespaces/inkscape"
   xmlns:sodipodi="http://sodipodi.sourceforge.net/DTD/sodipodi-0.dtd"
   xmlns="http://www.w3.org/2000/svg"
   xmlns:svg="http://www.w3.org/2000/svg">
  <defs
     id="defs10" />
  <sodipodi:namedview
     id="namedview10"
     pagecolor="#ffffff"
     bordercolor="#000000"
     borderopacity="0.25"
     inkscape:showpageshadow="2"
     inkscape:pageopacity="0.0"
     inkscape:pagecheckerboard="0"
     inkscape:deskcolor="#d1d1d1"
     inkscape:document-units="pt"
     inkscape:zoom="0.21480943"
     inkscape:cx="744.84627"
     inkscape:cy="1384.9485"
     inkscape:window-width="1680"
     inkscape:window-height="934"
     inkscape:window-x="0"
     inkscape:window-y="25"
     inkscape:window-maximized="1"
     inkscape:current-layer="svg10" />
  <metadata
     id="metadata1">&#10;Created by potrace 1.14, written by Peter Selinger 2001-2017&#10;</metadata>
  <path
     d="M 450,4.4 C 447,5.8 439.3,9 433,11.5 422.5,15.9 412.9,20 396.5,27.5 322.9,61 252,105 211.2,142.5 c -38.2,35.2 -73.9,88.1 -95.7,141.9 -9.9,24.7 -19.1,57.2 -22,78.1 -0.2,1.6 -0.9,6.1 -1.4,10 -3.2,22.5 -3.6,67.5 -0.7,84.5 0.3,1.4 1.4,7.9 2.5,14.5 7.1,41.8 23.4,83.1 46.9,119 6.3,9.5 20.4,28.8 22.7,31 0.6,0.5 2.9,3.2 5,6 2.2,2.7 5.3,6.5 7,8.4 1.6,1.9 3.5,3.9 4,4.5 18,20.4 50.2,52.3 73,72.3 l 7.1,6.1 1.3,7.9 c 0.7,4.3 1.5,8.6 1.7,9.5 0.2,1 0.6,2.7 0.8,3.8 10.8,48.4 36.7,99.9 69.5,138.2 14.8,17.2 43,43.4 70.2,65.2 0.8,0.7 6.7,4.7 13,8.8 41.8,27.8 85.8,45 134.4,52.4 5.5,0.8 11.1,1.7 12.5,1.9 17.4,2.7 58.6,2.4 80.5,-0.6 3.9,-0.5 8.8,-1.2 11,-1.5 2.2,-0.3 9.2,-1.6 15.5,-2.9 80.6,-17 151,-62.5 199.2,-128.6 8.8,-12 22.8,-34.4 22.8,-36.4 0,-0.8 0.4,-1.6 0.9,-2 1.2,-0.7 8.9,-16.6 13.7,-28.2 8.4,-20.1 15.2,-43.4 19.9,-68.2 0.2,-1.4 0.7,-4.5 1,-7 0.3,-2.5 0.7,-5.5 0.9,-6.6 0.2,-1.1 0.7,-5.7 1.1,-10.3 l 0.7,-8.2 6.1,-5.8 c 8.6,-8 42.1,-41.4 49.3,-49.2 15.5,-16.7 36.1,-42.8 47.7,-60.5 24.7,-37.9 43.1,-88.3 48.2,-131.7 2.7,-23.2 2.7,-62 0,-80.8 -0.2,-1.4 -0.6,-4.5 -0.9,-7 -1.3,-9.6 -7,-36 -10.2,-47.1 C 1055,271 1029.3,222.4 992.3,176.5 960.8,137.4 907.9,97.5 837,59.3 826.8,53.8 791.3,36 781.5,31.5 756.9,20.2 714.7,2.2 716.6,3.9 c 0.5,0.4 10.6,5.8 22.4,11.8 31.6,16.3 64.8,35.4 88,50.7 10.7,7 30.5,21.6 35,25.8 1.4,1.3 4.8,4.3 7.5,6.7 7.3,6.4 28,26.7 35.5,34.7 51.2,54.8 84.5,117.4 97.9,184.1 2.8,14.3 3.6,18.6 4.7,28.3 0.3,2.5 0.7,6.1 0.9,8 2.3,17.5 2.3,63.7 0.1,78.1 -0.2,1.3 -0.7,5.1 -1,8.4 -0.7,6.3 -0.8,7.4 -2.7,17.8 -0.6,3.4 -1.3,7.5 -1.6,9.2 -1.1,6.8 -6.7,26.6 -10,35.5 -13.1,35 -32.7,59.2 -59.3,73.1 -7,3.7 -17.7,7.5 -18.5,6.7 -0.3,-0.3 -2.6,-5.9 -5.1,-12.4 -2.4,-6.5 -6.1,-15.4 -8.1,-19.6 -3.3,-7.1 -3.5,-7.9 -2.1,-9.5 0.9,-1 4.1,-6 7.2,-11.2 28.1,-46.4 43,-104.6 43,-167.1 0,-9.2 -1,-25.4 -1.8,-29.5 -0.2,-1.1 -0.7,-4 -1.1,-6.5 -2.1,-13.5 -10.3,-42 -16,-55.5 -4.6,-10.8 -12.3,-26.1 -19.3,-38.2 -9.9,-17.4 -8.4,-14.9 -18.6,-29.8 C 870.1,169.2 838.8,134.6 802,101.8 792.4,93.3 770,75 769.2,75 c -0.5,0 2.2,3.1 8.8,10 3,3.1 16.6,20 23.7,29.5 35.2,46.8 64.1,102.2 81.3,155.9 7.1,22.1 9.3,31.6 11.4,48.5 1.2,9.2 1.3,37 0.3,44.1 -1.5,9.9 -2.2,13.6 -4.3,22 -6.5,26 -19.5,50.8 -37.9,72.3 l -6.7,7.7 -11.6,-11.4 C 827.7,447.3 820,439.9 817,437.1 l -5.5,-5.1 2.5,-2.1 c 29.8,-24.4 43.9,-61 38,-98.4 -0.7,-3.9 -2.8,-11.5 -4.7,-17 -4,-11.4 -3.4,-9.7 -18.8,-50.5 l -11.5,-30.5 0.5,15 c 0.2,8.2 0.8,23.8 1.2,34.5 1.3,33.4 0.9,48.3 -1.6,58 -3.6,14.3 -8,22.2 -17.5,31.6 -6.4,6.3 -10.1,9.1 -16.5,12.2 -8,3.8 -8.6,4 -19.2,4.1 -9.3,0.2 -11.5,-0.1 -14.2,-1.7 -12.1,-7.3 -33.9,-17.4 -51.5,-23.8 -8.7,-3.2 -30.5,-9.7 -36.2,-10.8 -13.5,-2.7 -29.4,-5.6 -33.5,-6.1 -2.7,-0.3 -6.8,-0.8 -9,-1 -17.4,-2.2 -49,-2.1 -69.5,0 -23.3,2.5 -48.8,8.1 -71.5,15.8 -17.3,5.9 -26.1,9.6 -43.8,18.5 l -14.7,7.4 h -10.3 c -13.4,-0.1 -20.2,-2.6 -30.7,-11 -12.9,-10.4 -19,-20.2 -23.2,-37 -2.5,-9.8 -2.8,-24.9 -1.5,-58.7 1.6,-40 1.8,-48 1.4,-47.5 -0.4,0.5 -6.5,16.3 -9.9,26 -1.1,3 -2.6,7 -3.4,8.8 -0.8,1.7 -2.1,5.1 -2.9,7.5 -0.7,2.3 -3.4,9.6 -6,16.2 -2.5,6.6 -5.6,14.5 -6.7,17.5 -6.7,18.3 -8.6,34.6 -6.1,52.1 3.7,25.8 16.2,48 36.7,65.8 l 3.9,3.3 -7.4,7.2 c -7.7,7.5 -15.9,16.2 -21.8,23 l -3.4,4 -4.6,-5 c -8.1,-8.7 -11,-12.5 -17.6,-22.3 -14.9,-22.5 -23,-43.7 -28.1,-74.1 -1.9,-11.6 -0.7,-46 2.1,-59 0.3,-1.4 0.8,-3.9 1.1,-5.5 4.9,-27.3 30.6,-91.6 49.3,-123.3 1.7,-2.9 3.1,-5.5 3.1,-5.7 0,-1 14.7,-24.6 21.8,-35 16.5,-24.1 31.2,-42.8 45,-57.2 5.6,-5.9 3.6,-5 -4.8,2 -0.8,0.6 -3.7,3 -6.4,5.1 -4.9,3.9 -7,5.6 -12.7,10.6 -1.6,1.4 -6,5.2 -9.8,8.5 -8.5,7.3 -41.3,40.4 -49.6,49.9 -3.3,3.8 -6.5,7.4 -7,8 -2,2.1 -17.2,21.2 -23.3,29.2 -17.4,23.1 -36.9,57.1 -46,80.4 -1.6,4.1 -3.3,8.4 -3.7,9.5 -0.5,1.1 -0.9,2.2 -1,2.5 -0.1,0.3 -0.5,1.2 -0.8,2 -0.6,1.4 -5.4,17.6 -6.3,21.2 -0.2,1 -0.7,2.8 -1,4 -1.7,7 -4.3,23.5 -5,31.3 -1.1,13.8 -0.5,48 1,56.2 0.2,1 0.7,5.3 1,9.5 0.4,4.2 0.9,8.7 1.2,10 0.2,1.3 1.1,6.1 1.9,10.8 2,11.2 1.9,11 4.9,22.5 8.6,33.8 20.7,61.3 38.8,88.1 l 6.8,10.1 -2.4,5.9 c -1.3,3.2 -4.1,11.2 -6.1,17.6 -4.3,13.4 -2.7,12.5 -16,8.5 -15.6,-4.7 -29.4,-13.3 -42,-26.1 -19,-19.2 -31.3,-42.9 -40,-77.1 -1.8,-7.2 -3.6,-14.8 -3.9,-17 -0.3,-2.2 -0.7,-4.9 -1,-6 -0.2,-1.1 -0.7,-4.3 -1,-7 -0.4,-2.8 -0.9,-5.7 -1.1,-6.5 -0.2,-0.8 -0.7,-5.5 -1,-10.4 -0.4,-5 -0.9,-9.9 -1.1,-11 -0.7,-3.1 -0.7,-48.1 0,-55.6 1.2,-14.5 1.8,-19.1 3.7,-31.5 1.1,-7.2 2.4,-14.6 2.9,-16.5 0.5,-1.9 1.2,-5 1.5,-6.9 1,-5.8 6.5,-25.3 10.2,-36.1 16.2,-47.6 42,-91 79.3,-133.5 6.7,-7.7 35.6,-36.2 45.1,-44.6 C 318.4,84.1 318.5,84 331,75.1 340.4,68.3 346.9,64 363.5,53.5 380,43 418,22 444.5,8.6 457.5,2 460.3,0 450,4.4 Z m 172.6,402 c 5.6,0.4 11,0.8 12,1 1.1,0.2 4.2,0.7 6.9,1 29.2,3.7 64,14.9 91.5,29.3 39.2,20.6 63.1,41.6 86.9,76.8 7.4,11 17.1,27.6 17.1,29.4 0,0.6 0.5,1.1 1,1.1 1.7,0 1.1,1.8 -0.7,2.4 -1,0.3 -5.2,0.8 -9.3,1.1 -4.1,0.4 -8.6,0.8 -10,1 -1.4,0.2 -5,0.6 -8,1 -3,0.3 -6.6,0.8 -8,1 -1.4,0.2 -4.5,0.7 -7,1 -34.4,4.8 -71.7,16.2 -91,27.8 -18,10.8 -36.9,32.4 -55.8,63.8 -5.8,9.7 -19.6,36.6 -23,44.9 l -2.3,5.5 4.3,-4.1 c 2.4,-2.2 5.4,-5.1 6.8,-6.3 3.7,-3.4 28.1,-21.6 30.7,-23 1.8,-0.9 4.9,-0.8 14,0.3 6.5,0.8 15.2,1.8 19.3,2.2 4.1,0.3 8.3,0.8 9.2,0.9 4.1,0.8 28.7,1.9 43.3,1.9 32.1,0 40.6,-2.2 51.2,-13.3 7.7,-8 16.4,-29.2 18.8,-46.1 1.1,-7.9 1.1,-7.8 6.3,-7.5 7.9,0.5 15.3,1.5 23.2,3.2 8.5,1.8 10.2,2.5 10.6,4.4 0.2,0.8 1,5 1.9,9.4 6.3,31.4 6.6,66.7 1,99 -2.3,13 -4.1,21.2 -6.5,29 -8.3,26.9 -16.6,45.6 -29.8,67.5 -17.7,29.2 -43.4,57.5 -70.7,77.6 -5.5,4.1 -10.4,7.7 -11,8.2 -3.5,2.8 -21.5,13.2 -31.3,18.2 -18.9,9.4 -35.7,15.9 -55.2,21.1 -11.2,3 -13.3,3.5 -27.7,5.9 -23.7,4 -59.5,4.7 -82.1,1.5 -1.8,-0.2 -5.2,-0.7 -7.5,-1 -45.8,-6.3 -99.6,-30 -135.2,-59.6 -12,-10 -29.4,-30.2 -41.1,-47.9 -21.6,-32.4 -36.2,-69.2 -42.5,-106.5 -0.5,-3.3 -1.2,-7.1 -1.4,-8.5 -2.9,-16.4 -2.6,-58.4 0.5,-78.5 1,-6.1 1.1,-6.8 3.1,-16.5 2,-10.3 5.2,-20.1 6.8,-20.9 1.7,-0.8 17.3,-4.7 22.6,-5.6 1.7,-0.3 6.4,-0.7 10.5,-1.1 4.1,-0.3 8.1,-0.7 8.7,-0.9 1.4,-0.5 1.4,-0.4 3.9,13 4.2,22.7 13.4,39.8 25.3,47.4 5.5,3.6 8.8,4.7 17,5.8 10.4,1.5 63.5,0.6 72.7,-1.1 1.1,-0.2 5.7,-0.7 10.4,-1.1 4.7,-0.4 9.2,-0.8 10,-1 0.8,-0.2 4.4,-0.6 8,-1 3.6,-0.4 7.2,-0.9 8.1,-1 2.5,-0.5 28.3,18.5 39.5,29.1 2.1,1.9 3.9,3.2 4.2,3 0.6,-0.7 -9.2,-21.1 -17.6,-36.6 C 538,622.3 518.3,597.2 499.5,582.9 483.8,571 447,558 416.3,553.4 c -2.1,-0.3 -4.5,-0.7 -5.3,-0.9 -3.7,-1 -27.1,-4.3 -35.5,-5 -3.9,-0.3 -7.9,-0.8 -9,-1 -1.1,-0.2 -3.7,-0.4 -5.7,-0.4 -2.1,-0.1 -3.8,-0.6 -3.8,-1.2 0,-1.4 11.9,-19.5 18.2,-27.7 39.1,-50.6 91.6,-85.6 152.8,-102.1 9.5,-2.5 26.1,-5.8 33.4,-6.6 3.2,-0.4 6.7,-0.8 7.9,-1.1 1.2,-0.2 6.9,-0.7 12.7,-1 5.8,-0.4 10.6,-0.7 10.7,-0.8 0.4,-0.3 21,0.2 29.9,0.8 z M 411.5,600.5 c 23.1,4.4 48.3,15 80.7,34 0.9,0.5 3.6,2 5.9,3.3 6.7,3.7 25.2,15.3 26.9,16.9 1.3,1.3 1.3,1.4 0,0.9 -0.8,-0.3 -3.3,-0.8 -5.5,-1.1 -2.2,-0.3 -6.7,-1 -10,-1.5 -3.3,-0.5 -7.6,-1.1 -9.5,-1.4 -1.9,-0.2 -7.8,-1.2 -13,-2.1 -5.2,-0.9 -10.8,-1.8 -12.5,-2.1 -9.9,-1.5 -34.1,-6.6 -41,-8.6 -13.8,-4 -24.5,-10.7 -35.2,-22.1 -6.2,-6.7 -14.6,-18.1 -13.8,-18.9 0.7,-0.7 18.4,1.1 27,2.7 z m 400.3,0.8 c -0.6,1.2 -2.6,4.2 -4.4,6.5 -13.5,17.7 -26.1,27.4 -42.2,32.1 -6.5,2 -26,6.4 -33.2,7.5 -1.9,0.3 -4.4,0.7 -5.5,0.9 -4.9,1 -10.2,1.9 -12.5,2.2 -1.4,0.2 -6.8,1.1 -12,1.9 -5.2,0.9 -11.3,1.8 -13.5,2.1 -2.2,0.4 -5.1,0.8 -6.4,1 -7.2,1.2 -11.5,1.7 -11.1,1.3 0.3,-0.3 5,-3.3 10.5,-6.7 5.5,-3.4 10.7,-6.6 11.5,-7.1 1.4,-0.9 28.9,-16.3 32.1,-18 21,-11.1 40.5,-18.9 54,-21.5 9.8,-1.9 14.1,-2.6 18.9,-3.2 3,-0.3 5.6,-0.6 5.7,-0.7 0.1,0 2.2,-0.2 4.7,-0.3 4.4,-0.2 4.6,-0.1 3.4,2 z"
     id="path1"
     style="fill:#487bbf;stroke:none;stroke-width:0.1;fill-opacity:1" />
  <path
     d="m 177.6,1063.1 c -2.1,0.5 -5.2,1.9 -7,3.1 -6.5,4.6 -8.8,8.2 -13.4,21.3 -1.2,3.3 -4.1,11.6 -6.6,18.5 -2.4,6.9 -6.9,19.5 -9.9,28 -3.1,8.5 -7.2,20 -9.1,25.5 -2,5.5 -3.6,10.3 -3.6,10.7 0,0.3 4.7,0.6 10.4,0.6 10.4,0.1 10.4,0.1 11.4,-2.6 0.6,-1.5 3.8,-10.6 7.1,-20.2 10.5,-30.9 19.8,-57.4 21.4,-61.2 2.7,-6.4 8.9,-7.5 12.3,-2.3 1.5,2.2 1.7,6.8 1.8,35.3 l 0.2,32.7 2.7,5.2 c 4.1,8 11.8,12.9 21.8,13.9 12.5,1.2 23.4,-5.2 27.1,-16.1 0.9,-2.8 5.5,-16.9 10.2,-31.5 14.4,-44.4 14.2,-43.9 20.7,-42.5 5.8,1.3 5.9,2.1 5.9,48 v 41.5 l 10,-0.1 10,-0.1 v -43.2 c 0,-26.6 -0.4,-44.5 -1,-46.8 -4.6,-16.3 -27.7,-23.8 -42.4,-13.7 -5.1,3.5 -7.5,7.8 -12.1,22.1 -16,49.7 -19.7,60.8 -21.1,61.9 -2.7,2.3 -6.1,2.1 -9,-0.5 l -2.8,-2.4 -0.1,-32.8 c -0.1,-30.8 -0.3,-33.2 -2.2,-37.5 -5.1,-11.4 -19.3,-17.8 -32.7,-14.8 z"
     id="path2"
     style="fill:#8d9196;stroke:none;stroke-width:0.1;fill-opacity:1" />
  <path
     d="m 318,1062.8 c -1.3,0.2 -1.5,6.8 -1.5,54 v 53.7 l 9.3,0.2 c 8.9,0.2 9.2,0.1 9.3,-2 0.4,-8.7 0.3,-104 -0.1,-105 -0.5,-1.1 -12.7,-1.8 -17,-0.9 z"
     id="path3"
     style="fill:#8d9196;stroke:none;stroke-width:0.1;fill-opacity:1" />
  <path
     d="m 370.7,1063.5 c -9,2.3 -16.4,9.3 -18.7,17.4 -0.6,2.1 -1,21 -1,46.8 v 43.3 l 10,-0.2 10,-0.1 v -41.4 c 0,-42.1 0.2,-44.2 3.8,-46.9 1.6,-1.2 4.7,-1.2 7.3,0 2,0.9 2.8,3 15.7,42.7 9.6,29.4 12.1,36 14.6,38.4 4.4,4.3 14.2,8.3 19.1,8 13.4,-1.1 22.5,-6.9 26.6,-17 1.6,-3.9 2,-91.4 0.4,-91.6 -4.8,-0.5 -16.9,-0.3 -17.8,0.3 -0.9,0.5 -1.2,11.5 -1.3,40 -0.2,48.4 0,44.4 -2.4,46.8 -2.8,2.8 -8.3,2.7 -10.2,-0.2 -1.5,-2.5 -1.5,-2.6 -15.3,-44.6 -5.2,-16.2 -10.3,-30.6 -11.3,-32 -5.5,-8.6 -18.1,-12.8 -29.5,-9.7 z"
     id="path4"
     style="fill:#8d9196;stroke:none;stroke-width:0.1;fill-opacity:1" />
  <path
     d="m 510.9,1063.6 c -14.1,2.5 -22.3,7.7 -29.1,18.3 -5.4,8.7 -8.1,20.3 -8.1,35.7 0,27.5 9.9,44 30.3,50.5 7.4,2.4 27,3.3 37.6,1.8 25.8,-3.6 38.6,-21.4 38.5,-53.4 0,-10.1 -0.1,-11 -2.2,-20 -3.8,-16.7 -14.6,-27.8 -30.9,-32 -7.8,-2 -27.1,-2.5 -36.1,-0.9 z m 32.1,18.8 c 12,2.6 18.1,14 18.1,34.1 0,17.2 -4.2,27.5 -13.1,32.5 -4.2,2.3 -5.5,2.5 -18.9,2.6 -7.9,0.1 -16.2,-0.3 -18.4,-0.8 -10.9,-2.4 -17.3,-12.9 -18,-29.5 -0.7,-15.4 2,-26.6 7.9,-32.9 3.7,-4 6.5,-5.4 12.3,-6.3 5.8,-0.9 25.4,-0.6 30.1,0.3 z"
     id="path5"
     style="fill:#8d9196;stroke:none;stroke-width:0.1;fill-opacity:1" />
  <path
     d="m 592.8,1062.8 c -1.2,0.2 -1.7,1.8 -2,6.5 -0.2,3.4 -0.2,7.6 0,9.2 l 0.3,3.1 12.5,-0.1 c 7.6,0 12.8,0.3 13.2,1 0.4,0.5 0.7,20.6 0.7,44.5 v 43.5 h 9.5 9.5 v -44.5 -44.5 h 12.5 12.5 v -9.3 c 0,-5 -0.2,-9.3 -0.5,-9.3 -1.3,-0.3 -66.8,-0.4 -68.2,-0.1 z"
     id="path6"
     style="fill:#000000;stroke:none;stroke-width:0.1" />
  <path
     d="m 700.5,1062.8 c -7.9,1.4 -13.4,5.6 -16.2,12.2 -0.9,1.9 -4,10.4 -6.9,18.7 -8.2,23.2 -15.8,44.5 -20.4,57.3 -2.3,6.3 -4.7,13.4 -5.5,15.8 l -1.3,4.2 9.9,-0.2 9.9,-0.1 1.6,-4.6 c 1,-2.5 2.3,-6 2.9,-7.7 l 1.3,-3.1 h 28.9 28.9 l 2.8,7.8 2.8,7.8 9.9,-0.1 c 5.4,-0.1 9.9,-0.3 9.9,-0.4 0,-0.2 -5.9,-16.9 -13.1,-37.1 -24.5,-68.8 -22.5,-64.2 -29.9,-68 -4.3,-2.2 -11.4,-3.3 -15.5,-2.5 z m 13,35.7 c 12,33.8 13.2,37.5 12.6,37.6 -2.6,0.4 -42.5,0.3 -43.1,-0.1 -1.1,-0.8 17.6,-52.3 19.6,-53.7 3.4,-2.5 5.3,0.5 10.9,16.2 z"
     id="path7"
     style="fill:#000000;stroke:none;stroke-width:0.1" />
  <path
     d="m 770.8,1064 c -0.7,3.1 -0.1,69.7 0.6,75 3,20.2 21.8,33.2 47.2,32.4 22.3,-0.7 36.4,-10.4 41.5,-28.4 0.9,-3.2 1.2,-15.3 1.3,-42.3 0.1,-20.7 -0.1,-37.7 -0.4,-37.8 -2.5,-0.4 -15.8,-0.4 -17,0 -1.3,0.5 -1.5,5.4 -1.6,37.1 0,35.1 -0.1,36.6 -2.1,40.5 -4.2,8.1 -10.5,11.5 -21.7,11.9 -12.9,0.6 -22.4,-3.9 -26.8,-12.4 -2.2,-4.4 -2.2,-5 -2.3,-40.7 0,-31.5 -0.2,-36.3 -1.5,-36.4 -0.8,-0.1 -5,-0.2 -9.2,-0.3 -6.1,-0.1 -7.8,0.2 -8,1.4 z"
     id="path8"
     style="fill:#000000;stroke:none;stroke-width:0.1" />
  <path
     d="m 878,1062.8 c -0.7,0.3 -1,19.2 -1,54.3 v 53.9 l 9.5,-0.2 9.5,-0.1 v -19.9 c 0,-10.9 0.2,-19.8 0.5,-19.8 0.4,0 24.3,14.5 54.5,32.9 7.4,4.6 13.8,8.5 14.2,8.8 0.4,0.2 0.7,-4.8 0.7,-11.1 l -0.1,-11.5 -21.7,-12.1 c -18.8,-10.4 -21.1,-12 -18.1,-12.1 20,-0.3 30.4,-5.5 36.2,-17.7 3.2,-6.8 3.2,-21.7 -0.1,-28.3 -4,-8.4 -11.7,-14.4 -21.1,-16.4 -3.4,-0.8 -60.9,-1.4 -63,-0.7 z m 61.6,20.5 c 7.1,3.7 8.4,13.9 2.6,20.5 -3,3.4 -5.9,3.8 -26.7,3.8 l -19,-0.1 -0.3,-13 -0.3,-13.1 20.3,0.1 c 16.7,0.1 20.9,0.4 23.4,1.8 z"
     id="path9"
     style="fill:#000000;stroke:none;stroke-width:0.1" />
  <path
     d="m 1004,1063.2 c -8,0.9 -16.2,4.9 -20.3,10 -9,11.2 -8.3,32 1.4,40.2 l 3.1,2.6 -4,4.4 c -10.5,11.4 -9.1,31.2 2.9,42 8.5,7.7 10,7.9 46.2,8.2 l 31.7,0.2 v -9.4 c 0,-8.3 -0.2,-9.4 -1.7,-9.5 -1,0 -14.6,-0.1 -30.3,-0.2 -31.9,-0.2 -32.7,-0.4 -35.6,-7.2 -2.5,-6.1 -1.8,-9.9 2.4,-14.5 l 3.9,-4 18.4,-0.1 c 10.1,0 23.9,0 30.7,0 l 12.2,0.1 v -9.5 -9.5 h -29 c -31.4,0 -34.3,-0.4 -37.5,-5.3 -4.3,-6.6 -2.1,-15.6 4.5,-18.6 3.2,-1.4 7.9,-1.6 32.8,-1.6 h 29.2 v -9.5 -9.5 h -27.3 c -14.9,0 -30.1,0.3 -33.7,0.7 z"
     id="path10"
     style="fill:#000000;stroke:none;stroke-width:0.1" />
</svg>
