<?xml version="1.0" encoding="UTF-8" standalone="no"?>
<!-- Generator: Adobe Illustrator 27.9.0, SVG Export Plug-In . SVG Version: 6.00 Build 0)  -->

<svg
   version="1.1"
   id="Calque_1"
   x="0px"
   y="0px"
   viewBox="0 0 484 156"
   style="enable-background:new 0 0 484 156;"
   xml:space="preserve"
   sodipodi:docname="logo-mines-mino.svg"
   inkscape:version="1.3 (0e150ed, 2023-07-21)"
   xmlns:inkscape="http://www.inkscape.org/namespaces/inkscape"
   xmlns:sodipodi="http://sodipodi.sourceforge.net/DTD/sodipodi-0.dtd"
   xmlns="http://www.w3.org/2000/svg"
   xmlns:svg="http://www.w3.org/2000/svg"><defs
   id="defs18" /><sodipodi:namedview
   id="namedview18"
   pagecolor="#ffffff"
   bordercolor="#000000"
   borderopacity="0.25"
   inkscape:showpageshadow="2"
   inkscape:pageopacity="0.0"
   inkscape:pagecheckerboard="0"
   inkscape:deskcolor="#d1d1d1"
   inkscape:zoom="0.52941536"
   inkscape:cx="224.77625"
   inkscape:cy="-329.60887"
   inkscape:window-width="1680"
   inkscape:window-height="934"
   inkscape:window-x="0"
   inkscape:window-y="25"
   inkscape:window-maximized="1"
   inkscape:current-layer="Calque_1" />&#10;<style
   type="text/css"
   id="style1">&#10;	.st0{fill:#005B9F;}&#10;</style>&#10;<g
   id="g3">&#10;	<g
   id="g1">&#10;		<path
   class="st0"
   d="M158.1,56.8c0-3.6-0.4-7.2-1.3-10.5l49.9-38.8l-53.1,30c-0.6-1.2-1.2-2.3-1.9-3.3l31.1-26.2l-37.7,18.9    l-31.6,27.5l32.3-17.2c3.2,5.8,5,12.6,5,19.7c0,22.5-18,40.7-40.3,40.7c-2.7,0-5.4-0.3-7.9-0.8L142.8,66L87.3,96.2    c6.9,3.7,14.8,5.8,23.3,5.8C136.8,102,158.1,81.7,158.1,56.8"
   id="path1" />&#10;	</g>&#10;	<g
   id="g2">&#10;		<path
   class="st0"
   d="M67.3,75.7c0.7,1.3,1.4,2.7,2.2,3.9l-33.1,26.6l39.3-19.5l31.6-28.4L75.1,76.1c-3.1-5.7-4.8-12.3-4.8-19.3    c0-22.5,18-40.7,40.3-40.7c2.4,0,4.8,0.2,7.1,0.6l0.3,0.4L78,46.8l55.9-29.4c-6.8-3.6-15-5.8-23.3-5.8C84.3,11.6,63,31.8,63,56.8    c0,3.6,0.4,7,1.2,10.3l-50,38.6L67.3,75.7z"
   id="path2" />&#10;	</g>&#10;</g>&#10;<polygon
   class="st0"
   points="85.5,94.4 125.6,61.8 77.1,88.5 59.6,106.6 "
   id="polygon3" />&#10;<polygon
   class="st0"
   points="143.9,24.8 160.8,7.5 135.6,18.9 96.2,50.7 "
   id="polygon4" />&#10;<polygon
   class="st0"
   points="18.2,134.6 11.4,122.4 6.8,122.4 6.8,148.9 11.1,148.9 11.1,130.2 18.1,142.4 18.2,142.4 25.3,130.1   25.3,148.9 29.6,148.9 29.6,122.4 25,122.4 "
   id="polygon5" />&#10;<rect
   x="35.2"
   y="122.4"
   class="st0"
   width="4.4"
   height="26.5"
   id="rect5" />&#10;<polygon
   class="st0"
   points="60.9,140.1 49.2,122.4 45.2,122.4 45.2,148.9 49.5,148.9 49.5,130.7 61.5,148.9 65.2,148.9 65.2,122.4   60.9,122.4 "
   id="polygon6" />&#10;<polygon
   class="st0"
   points="74.9,137.5 85.9,137.5 85.9,133.6 74.9,133.6 74.9,126.3 87.3,126.3 87.3,122.4 70.6,122.4 70.6,148.9   87.5,148.9 87.5,144.9 74.9,144.9 "
   id="polygon7" />&#10;<g
   id="g9">&#10;	<g
   id="g7">&#10;		<path
   class="st0"
   d="M100.8,133.7c-4.5-1.7-5.5-2.7-5.5-4.6v0c0-1.7,1.5-3.1,3.9-3.1c2.1,0,4.1,1,5.9,2.5l2.5-3.4    c-2.4-2.1-5.3-3.1-8.3-3.1c-4.9,0-8.4,3.1-8.4,7.4v0.1c0,4.2,2.6,6.1,7.7,8c4.2,1.6,5.1,2.6,5.1,4.3v0c0,2-1.6,3.4-4.2,3.4    c-2.8,0-5-1.4-7-3.1l-2.7,3.3c2.9,2.6,6.2,3.8,9.6,3.8c5,0,8.6-3,8.6-7.6v-0.1C108,137.6,105.7,135.6,100.8,133.7"
   id="path7" />&#10;	</g>&#10;	<g
   id="g8">&#10;		<path
   class="st0"
   d="M135.1,131.4c0,2.9-2,5-5.3,5h-3.8v-9.9h3.8C133.1,126.4,135.1,128.1,135.1,131.4L135.1,131.4z M139.5,131.2    c0-5.5-3.8-8.8-9.6-8.8h-8.5v26.5h4.4v-8.6h3.8C135.2,140.2,139.5,137.1,139.5,131.2L139.5,131.2L139.5,131.2z"
   id="path8" />&#10;	</g>&#10;</g>&#10;<path
   class="st0"
   d="M146.9,138.7l3.8-10.6l3.8,10.6H146.9z M148.6,122.2l-9.7,26.7h4.4l2.2-6.2h10.3l2.2,6.2h4.6l-9.7-26.7H148.6z"
   id="path9" />&#10;<g
   id="g11">&#10;	<g
   id="g10">&#10;		<path
   class="st0"
   d="M175.1,135.6h-4.7v-9.2h4.8c3.3,0,5.2,1.6,5.2,4.5v0.1C180.4,133.8,178.6,135.6,175.1,135.6 M184.9,130.9    v-0.1c0-2.4-0.8-4.4-2.2-5.8c-1.6-1.6-4.1-2.5-7.1-2.5H166v26.5h4.4v-9.4h4.2c0.1,0,0.2,0,0.3,0l5.6,9.4h5.1l-6.2-10.3    C182.6,137.5,184.9,134.9,184.9,130.9"
   id="path10" />&#10;	</g>&#10;</g>&#10;<rect
   x="189.5"
   y="122.4"
   class="st0"
   width="4.4"
   height="26.5"
   id="rect11" />&#10;<g
   id="g13">&#10;	<g
   id="g12">&#10;		<path
   class="st0"
   d="M208.5,133.7c-4.5-1.7-5.5-2.7-5.5-4.6v0c0-1.7,1.5-3.1,3.9-3.1c2.1,0,4.1,1,5.9,2.5l2.5-3.4    c-2.4-2.1-5.3-3.1-8.3-3.1c-4.9,0-8.4,3.1-8.4,7.4v0.1c0,4.2,2.6,6.1,7.6,8c4.2,1.6,5.1,2.6,5.1,4.3v0c0,2-1.6,3.4-4.2,3.4    c-2.8,0-5-1.4-7-3.1l-2.6,3.3c2.9,2.6,6.2,3.8,9.6,3.8c5,0,8.6-3,8.6-7.6v-0.1C215.7,137.6,213.5,135.6,208.5,133.7"
   id="path11" />&#10;	</g>&#10;</g>&#10;<rect
   x="251.9"
   y="49.2"
   class="st0"
   width="2.2"
   height="69.7"
   id="rect13" />&#10;&#10;&#10;&#10;<path
   d="m 358.35214,8.7446128 c -0.36009,0.1680464 -1.28434,0.5521425 -2.04054,0.8522224 -1.26034,0.5281478 -2.41265,1.0202828 -4.38116,1.9205228 -8.83437,4.021068 -17.34462,9.302462 -22.24193,13.803674 -4.58522,4.225128 -8.87037,10.574808 -11.48706,17.032528 -1.18831,2.964786 -2.29261,6.865825 -2.6407,9.374502 -0.0241,0.192042 -0.10802,0.732194 -0.16804,1.20032 -0.38411,2.700719 -0.43213,8.102157 -0.0841,10.142695 0.0359,0.168046 0.16804,0.948257 0.30007,1.740471 0.85223,5.017328 2.80876,9.974649 5.6295,14.283793 0.7562,1.140312 2.44866,3.456921 2.72473,3.721002 0.0721,0.06002 0.3481,0.384096 0.60017,0.720189 0.26407,0.324074 0.63616,0.780211 0.84022,1.008264 0.19203,0.228054 0.42011,0.468127 0.48013,0.540152 2.16058,2.448643 6.02559,6.27767 8.76232,8.678309 l 0.85224,0.732192 0.15604,0.948258 c 0.084,0.516129 0.18004,1.032273 0.20404,1.140297 0.0241,0.120044 0.0721,0.324089 0.096,0.456123 1.29636,5.809543 4.40519,11.991193 8.34224,16.588413 1.77647,2.06456 5.16138,5.20939 8.42625,7.82608 0.096,0.084 0.8042,0.56415 1.56041,1.05628 5.01733,3.33689 10.29874,5.40144 16.13229,6.28967 0.66018,0.096 1.33235,0.20407 1.5004,0.22808 2.08856,0.32408 7.03388,0.28807 9.66257,-0.0721 0.46813,-0.06 1.05629,-0.14403 1.32036,-0.18003 0.26406,-0.036 1.10428,-0.19206 1.86048,-0.34811 9.67459,-2.04055 18.12484,-7.50198 23.91037,-15.4361 1.05628,-1.44039 2.73673,-4.12911 2.73673,-4.36916 0,-0.096 0.048,-0.19206 0.10802,-0.24008 0.14403,-0.0839 1.06829,-1.99252 1.64443,-3.38489 1.00828,-2.41264 1.82449,-5.209398 2.38865,-8.186188 0.024,-0.168046 0.0839,-0.540138 0.12005,-0.840218 0.036,-0.30008 0.084,-0.660181 0.10801,-0.792215 0.024,-0.132075 0.0839,-0.684176 0.13207,-1.236333 l 0.084,-0.984255 0.7322,-0.696181 c 1.03228,-0.960261 5.05334,-4.969324 5.91758,-5.905577 1.86049,-2.004538 4.33314,-5.137371 5.72552,-7.261938 2.96478,-4.549204 5.17338,-10.598818 5.78555,-15.808201 0.32408,-2.78475 0.32408,-7.44199 0,-9.698591 -0.024,-0.168047 -0.0721,-0.540139 -0.10801,-0.840219 -0.15605,-1.152302 -0.84022,-4.32116 -1.22433,-5.653514 -1.84848,-6.349681 -4.93331,-12.183232 -9.37449,-17.692709 -3.78101,-4.693239 -10.13071,-9.482527 -18.64097,-14.067742 -1.22433,-0.660181 -5.48547,-2.796739 -6.66177,-3.336892 -2.95279,-1.356361 -8.01813,-3.5169281 -7.79008,-3.3128825 0.06,0.04799 1.27235,0.6961942 2.68872,1.4163835 3.79301,1.956521 7.77808,4.249135 10.56281,6.085614 1.28434,0.840231 3.66099,2.592694 4.20113,3.096833 0.16804,0.156042 0.57614,0.51613 0.90023,0.804205 0.87623,0.768207 3.3609,3.204858 4.26113,4.165119 6.14565,6.57775 10.1427,14.091751 11.75113,22.097874 0.3361,1.716463 0.43213,2.232606 0.56417,3.396913 0.036,0.30008 0.084,0.732192 0.10801,0.960248 0.27606,2.100558 0.27606,7.646034 0.0125,9.374502 -0.0241,0.156042 -0.084,0.612164 -0.12005,1.008264 -0.0839,0.756202 -0.096,0.888235 -0.32407,2.136572 -0.0721,0.408105 -0.15605,0.90024 -0.19205,1.104299 -0.13208,0.81621 -0.80422,3.19284 -1.20032,4.261126 -1.57243,4.201118 -3.92505,7.105897 -7.1179,8.774343 -0.84022,0.444117 -2.12457,0.90024 -2.22059,0.804219 -0.036,-0.03596 -0.31209,-0.708198 -0.61217,-1.488409 -0.28807,-0.780197 -0.73219,-1.848483 -0.97225,-2.352622 -0.39612,-0.852223 -0.42012,-0.948256 -0.25208,-1.140299 0.10801,-0.120042 0.49214,-0.720188 0.86423,-1.344356 3.3729,-5.569484 5.16138,-12.555353 5.16138,-20.05735 0,-1.104285 -0.12004,-3.048801 -0.21607,-3.540937 -0.024,-0.132075 -0.0839,-0.48013 -0.13207,-0.78021 -0.25207,-1.620428 -1.23633,-5.041338 -1.92052,-6.661779 -0.55214,-1.296341 -1.47639,-3.132833 -2.31661,-4.585215 -1.18831,-2.088555 -1.00828,-1.788474 -2.23259,-3.57695 -2.82076,-4.117102 -6.57776,-8.270204 -10.99493,-12.207255 -1.15231,-1.020268 -3.84104,-3.216862 -3.93706,-3.216862 -0.06,0 0.26407,0.372105 1.05628,1.200333 0.3601,0.372091 1.99254,2.400626 2.84477,3.540937 4.22513,5.617488 7.69405,12.267263 9.75859,18.712978 0.85223,2.652716 1.11631,3.793014 1.36837,5.821547 0.14404,1.104299 0.15604,4.441191 0.036,5.293413 -0.18003,1.188315 -0.26406,1.632433 -0.51613,2.640712 -0.7802,3.120828 -2.34062,6.097619 -4.54921,8.678307 l -0.80422,0.924249 -1.39236,-1.368366 c -0.78021,-0.756202 -1.70445,-1.644437 -2.06456,-1.980529 l -0.66017,-0.612165 0.30008,-0.252063 c 3.57696,-2.928787 5.26941,-7.321946 4.5612,-11.811154 -0.084,-0.468112 -0.33607,-1.380357 -0.56414,-2.040538 -0.48012,-1.368366 -0.4081,-1.164307 -2.2566,-6.061619 l -1.38037,-3.660966 0.06,1.800479 c 0.0241,0.984256 0.096,2.856761 0.14404,4.141097 0.15605,4.009077 0.10802,5.797553 -0.19206,6.96186 -0.43211,1.716448 -0.96024,2.664705 -2.10056,3.793013 -0.7682,0.756201 -1.21231,1.092281 -1.98052,1.464386 -0.96024,0.456123 -1.03227,0.48013 -2.30461,0.492121 -1.1163,0.02406 -1.38036,-0.01244 -1.70446,-0.204045 -1.45238,-0.876232 -4.06907,-2.088555 -6.18163,-2.856762 -1.04429,-0.384109 -3.66099,-1.164306 -4.34518,-1.296353 -1.62042,-0.324075 -3.52892,-0.672172 -4.02106,-0.732194 -0.32409,-0.03595 -0.81621,-0.09597 -1.08028,-0.120043 -2.08857,-0.264066 -5.88157,-0.252062 -8.34223,0 -2.79674,0.300081 -5.85755,0.972266 -8.58228,1.896514 -2.07655,0.708184 -3.13283,1.152302 -5.2574,2.220589 l -1.76447,0.888234 h -1.23633 c -1.60843,-0.01244 -2.42466,-0.312083 -3.68498,-1.320348 -1.54842,-1.248336 -2.28061,-2.424647 -2.78474,-4.441191 -0.30009,-1.176311 -0.3361,-2.988794 -0.18006,-7.045875 0.19205,-4.801278 0.21607,-5.761539 0.16805,-5.701518 -0.048,0.06002 -0.78021,1.956522 -1.18831,3.120829 -0.13209,0.360101 -0.31209,0.840232 -0.40812,1.056281 -0.096,0.20406 -0.25206,0.612164 -0.34809,0.90024 -0.0839,0.276071 -0.4081,1.152316 -0.72019,1.944517 -0.30008,0.792215 -0.67217,1.740472 -0.80421,2.10056 -0.80421,2.196593 -1.03227,4.153115 -0.7322,6.253674 0.44412,3.096818 1.94452,5.761525 4.40518,7.898097 l 0.46813,0.396114 -0.88824,0.864227 c -0.92425,0.900239 -1.90852,1.944517 -2.61671,2.760727 l -0.4081,0.48013 -0.55216,-0.600159 c -0.97225,-1.044278 -1.32034,-1.500399 -2.11255,-2.676711 -1.78847,-2.700719 -2.76073,-5.245395 -3.3729,-8.894371 -0.22805,-1.392361 -0.0839,-5.521467 0.25206,-7.081889 0.036,-0.168032 0.096,-0.468125 0.13208,-0.660167 0.58816,-3.27687 3.67297,-10.994931 5.91756,-14.799948 0.20407,-0.348084 0.37212,-0.660169 0.37212,-0.684177 0,-0.120043 1.76446,-2.952782 2.61669,-4.201118 1.98052,-2.892774 3.74499,-5.137371 5.40142,-6.865825 0.67219,-0.708198 0.43212,-0.60016 -0.57615,0.240059 -0.096,0.07205 -0.44411,0.360101 -0.7682,0.612164 -0.58816,0.468126 -0.84021,0.672185 -1.5244,1.272331 -0.19205,0.168046 -0.7202,0.624168 -1.17631,1.020282 -1.02028,0.876232 -4.95733,4.849283 -5.95359,5.989594 -0.39611,0.456122 -0.78022,0.888236 -0.84021,0.960247 -0.24008,0.252078 -2.06457,2.544691 -2.79676,3.504939 -2.08855,2.77273 -4.42918,6.85382 -5.52146,9.650573 -0.19207,0.492135 -0.39613,1.008265 -0.44412,1.140298 -0.06,0.132075 -0.10802,0.264068 -0.12005,0.30008 -0.0125,0.03596 -0.06,0.144038 -0.096,0.240073 -0.0721,0.168046 -0.64816,2.112563 -0.75621,2.544677 -0.0241,0.120042 -0.0841,0.336079 -0.12004,0.48013 -0.20406,0.840218 -0.51612,2.820749 -0.60016,3.756986 -0.13208,1.656442 -0.06,5.761541 0.12004,6.74581 0.0241,0.120043 0.084,0.636159 0.12004,1.140297 0.048,0.504126 0.10802,1.044278 0.14404,1.20032 0.024,0.156043 0.13208,0.732194 0.22808,1.29634 0.24006,1.344358 0.22806,1.320349 0.58814,2.70072 1.03228,4.05708 2.48468,7.357959 4.65724,10.574822 l 0.81623,1.212323 -0.28808,0.708186 c -0.15604,0.384095 -0.49213,1.344357 -0.73219,2.112563 -0.51614,1.608425 -0.32409,1.500401 -1.92052,1.020269 -1.87249,-0.564147 -3.52894,-1.596421 -5.04134,-3.132832 -2.28061,-2.30462 -3.757,-5.149377 -4.80128,-9.25446 -0.21606,-0.864241 -0.43211,-1.776485 -0.46812,-2.040551 -0.036,-0.264068 -0.084,-0.588157 -0.12005,-0.72019 -0.024,-0.132074 -0.084,-0.516129 -0.12004,-0.840217 -0.048,-0.336094 -0.108,-0.68419 -0.13207,-0.780211 -0.024,-0.09598 -0.084,-0.660182 -0.12004,-1.248337 -0.048,-0.600161 -0.10802,-1.188315 -0.13209,-1.320349 -0.0839,-0.372106 -0.0839,-5.773543 0,-6.673783 0.14405,-1.740459 0.21607,-2.2926 0.44413,-3.780996 0.13207,-0.86424 0.28806,-1.752476 0.34809,-1.980529 0.06,-0.228068 0.14404,-0.60016 0.18006,-0.828229 0.12004,-0.69618 0.78019,-3.036812 1.22431,-4.333151 1.94451,-5.713523 5.04135,-10.922906 9.51854,-16.024264 0.80422,-0.924248 4.27313,-4.345156 5.41344,-5.35342 1.4764,-1.296354 1.4884,-1.308359 2.9888,-2.376645 1.1283,-0.816209 1.9085,-1.332353 3.90103,-2.59268 1.98053,-1.260341 6.54173,-3.781009 9.72259,-5.3894337 1.56042,-0.7922148 1.89651,-1.0322869 0.66019,-0.5041391 z m 20.71751,48.2528402 c 0.67219,0.04799 1.32036,0.09598 1.4404,0.120044 0.13207,0.02406 0.50413,0.08395 0.82821,0.120042 3.50494,0.444118 7.68205,1.788476 10.98293,3.516943 4.70526,2.472651 7.57403,4.993319 10.43078,9.218446 0.88824,1.320349 2.05254,3.312883 2.05254,3.528933 0,0.07205 0.06,0.132075 0.12005,0.132075 0.20406,0 0.13207,0.216049 -0.0839,0.288075 -0.12004,0.03596 -0.62417,0.09598 -1.11631,0.132076 -0.49213,0.04798 -1.03227,0.09598 -1.20032,0.120041 -0.16804,0.02406 -0.60015,0.07206 -0.96024,0.120044 -0.36011,0.03596 -0.79221,0.09598 -0.96026,0.120044 -0.16805,0.02406 -0.54014,0.08408 -0.84023,0.120042 -4.12909,0.576152 -8.60629,1.944517 -10.92291,3.336878 -2.16057,1.296355 -4.42918,3.889037 -6.69778,7.658041 -0.69618,1.16432 -2.35262,4.393173 -2.76073,5.389434 l -0.27608,0.660182 0.51614,-0.492136 c 0.28808,-0.264068 0.64817,-0.612151 0.81621,-0.756202 0.44413,-0.408105 3.37291,-2.59268 3.685,-2.760726 0.21605,-0.108011 0.58815,-0.09598 1.68043,0.03596 0.78021,0.09598 1.82449,0.216063 2.31663,0.264067 0.49213,0.03596 0.99626,0.09598 1.10428,0.10801 0.49214,0.09598 3.44493,0.228055 5.19739,0.228055 3.85301,0 4.8733,-0.264068 6.14564,-1.596419 0.92424,-0.960261 1.96852,-3.504939 2.25659,-5.533472 0.13208,-0.948258 0.13208,-0.936253 0.75621,-0.90024 0.94826,0.06002 1.83649,0.180037 2.78475,0.384097 1.02026,0.216063 1.22431,0.300079 1.27233,0.528146 0.0241,0.09598 0.12004,0.600161 0.22806,1.128295 0.75622,3.769004 0.79221,8.006135 0.12005,11.883166 -0.27607,1.560421 -0.49214,2.544677 -0.78021,3.48093 -0.99626,3.228846 -1.99253,5.473446 -3.57695,8.102156 -2.12456,3.50493 -5.20939,6.90184 -8.48627,9.31448 -0.66016,0.49212 -1.24832,0.92424 -1.32035,0.98426 -0.4201,0.33608 -2.58069,1.58443 -3.757,2.18457 -2.2686,1.12831 -4.28514,1.90852 -6.62576,2.53269 -1.34435,0.36008 -1.59643,0.42011 -3.32488,0.70818 -2.84476,0.48013 -7.14191,0.56414 -9.85463,0.18005 -0.21607,-0.0241 -0.62417,-0.084 -0.90024,-0.12004 -5.49746,-0.7562 -11.95517,-3.60095 -16.22832,-7.15391 -1.44038,-1.20032 -3.52893,-3.62497 -4.93331,-5.74954 -2.5927,-3.88903 -4.34515,-8.30621 -5.10136,-12.783389 -0.06,-0.396114 -0.14404,-0.852237 -0.16805,-1.020283 -0.34808,-1.968512 -0.31209,-7.009863 0.06,-9.422506 0.12004,-0.732193 0.13207,-0.816209 0.37209,-1.98053 0.24007,-1.236318 0.62416,-2.41263 0.81623,-2.508664 0.20404,-0.09598 2.07655,-0.564146 2.71271,-0.672172 0.20406,-0.03595 0.7682,-0.08408 1.26034,-0.132075 0.49213,-0.03595 0.97225,-0.08408 1.04427,-0.10801 0.16804,-0.06002 0.16804,-0.04798 0.46813,1.56042 0.50413,2.724729 1.60842,4.777269 3.03681,5.689514 0.66018,0.432113 1.05627,0.564147 2.04054,0.69618 1.24833,0.180051 7.62204,0.07205 8.72632,-0.132075 0.13207,-0.02406 0.68419,-0.08408 1.24833,-0.132075 0.56415,-0.04798 1.10431,-0.09598 1.20032,-0.120043 0.096,-0.02406 0.52814,-0.07205 0.96027,-0.120042 0.4321,-0.04799 0.86422,-0.108012 0.97225,-0.120044 0.30007,-0.06002 3.39689,2.220602 4.74126,3.492934 0.25208,0.228068 0.46813,0.384096 0.50413,0.360101 0.0721,-0.08408 -1.10429,-2.532671 -2.11256,-4.393174 -2.06454,-3.805017 -4.42917,-6.81782 -6.68577,-8.534271 -1.88451,-1.428387 -6.30169,-2.988794 -9.98667,-3.54095 -0.25206,-0.03596 -0.54014,-0.08408 -0.63616,-0.108012 -0.44413,-0.120043 -3.25288,-0.51613 -4.26113,-0.600159 -0.46814,-0.03596 -0.94826,-0.09598 -1.0803,-0.120044 -0.13207,-0.02406 -0.44411,-0.04798 -0.68417,-0.04798 -0.25209,-0.01244 -0.45613,-0.07204 -0.45613,-0.144037 0,-0.168046 1.42838,-2.340618 2.18458,-3.324887 4.69325,-6.07361 10.99493,-10.274729 18.34089,-12.25526 1.1403,-0.300079 3.13283,-0.696179 4.00906,-0.792214 0.38411,-0.04798 0.80422,-0.09598 0.94826,-0.132075 0.14404,-0.02406 0.82821,-0.08408 1.52441,-0.120043 0.69617,-0.04799 1.27232,-0.08408 1.28433,-0.09598 0.048,-0.03596 2.52068,0.02406 3.58896,0.09598 z m -25.33874,23.298208 c 2.77275,0.528148 5.79753,1.800479 9.68659,4.081089 0.10801,0.06002 0.43211,0.240058 0.70818,0.3961 0.80421,0.444132 3.02482,1.836492 3.22886,2.028548 0.15604,0.156042 0.15604,0.168046 0,0.108011 -0.096,-0.03596 -0.3961,-0.09598 -0.66018,-0.132075 -0.26407,-0.03596 -0.80421,-0.120043 -1.20031,-0.180051 -0.39611,-0.06002 -0.91224,-0.132074 -1.14032,-0.168032 -0.22805,-0.02406 -0.93623,-0.144052 -1.5604,-0.252077 -0.62416,-0.108012 -1.29635,-0.216063 -1.50039,-0.252063 -1.18832,-0.18005 -4.0931,-0.792214 -4.92131,-1.032272 -1.65645,-0.480131 -2.94079,-1.284351 -4.22514,-2.652702 -0.74419,-0.80422 -1.75247,-2.172585 -1.65643,-2.268606 0.0838,-0.08408 2.20858,0.132075 3.24085,0.324075 z m 48.0488,0.09598 c -0.0721,0.144037 -0.31208,0.504125 -0.52813,0.780196 -1.62045,2.124568 -3.13284,3.288889 -5.06536,3.853036 -0.7802,0.240059 -3.12084,0.768206 -3.98506,0.900239 -0.22807,0.03596 -0.52815,0.08395 -0.66019,0.108011 -0.58814,0.120044 -1.22432,0.228068 -1.5004,0.264067 -0.16805,0.02406 -0.81619,0.132075 -1.44037,0.228069 -0.62417,0.10801 -1.35636,0.216049 -1.62043,0.252062 -0.26408,0.04798 -0.61216,0.09598 -0.76821,0.120043 -0.86423,0.144038 -1.38036,0.20406 -1.33235,0.156042 0.036,-0.03596 0.60016,-0.396101 1.26034,-0.804206 0.66017,-0.408104 1.28434,-0.792214 1.38036,-0.852236 0.16805,-0.10801 3.46893,-1.956521 3.85302,-2.160567 2.52068,-1.332352 4.8613,-2.268605 6.48173,-2.580689 1.17631,-0.228068 1.69245,-0.312084 2.2686,-0.384096 0.3601,-0.03596 0.67219,-0.07205 0.68419,-0.08408 0.0125,0 0.26407,-0.02406 0.56415,-0.03596 0.52813,-0.02406 0.55215,-0.01245 0.40811,0.240058 z"
   id="path1-8"
   style="fill:#005b9f;fill-opacity:1;stroke:none;stroke-width:0.0120032" /><path
   d="m 325.65544,135.82246 c -0.25206,0.06 -0.62417,0.22805 -0.84022,0.3721 -0.78021,0.55213 -1.05628,0.98426 -1.60844,2.55667 -0.14404,0.3961 -0.49213,1.39238 -0.7922,2.22058 -0.28808,0.82824 -0.82822,2.34064 -1.18832,3.36091 -0.37209,1.02027 -0.86422,2.40064 -1.0923,3.06081 -0.24006,0.66019 -0.4321,1.23634 -0.4321,1.28433 0,0.0361 0.56414,0.0721 1.24833,0.0721 1.24832,0.0125 1.24832,0.0125 1.36836,-0.31205 0.0721,-0.18006 0.45612,-1.27236 0.85223,-2.42465 1.26032,-3.709 2.37663,-6.88984 2.56868,-7.34597 0.32408,-0.7682 1.06828,-0.90023 1.4764,-0.27608 0.18004,0.26408 0.20404,0.81622 0.21605,4.23714 l 0.024,3.92504 0.32409,0.62418 c 0.49213,0.96023 1.41637,1.54842 2.61669,1.66845 1.50039,0.14402 2.80874,-0.62418 3.25286,-1.93253 0.10801,-0.33609 0.66018,-2.02855 1.22432,-3.78101 1.72847,-5.32942 1.70446,-5.2694 2.48468,-5.10136 0.69618,0.15604 0.70818,0.25207 0.70818,5.76153 v 4.98133 l 1.20032,-0.0125 1.20033,-0.0125 v -5.18536 c 0,-3.19286 -0.048,-5.34142 -0.12005,-5.61751 -0.55216,-1.9565 -3.32489,-2.85674 -5.08935,-1.64443 -0.61217,0.42012 -0.90025,0.93625 -1.4524,2.65271 -1.92051,5.96559 -2.36463,7.29794 -2.53268,7.42997 -0.32408,0.27609 -0.73219,0.25208 -1.08029,-0.06 l -0.33608,-0.28808 -0.0125,-3.93705 c -0.0125,-3.69699 -0.036,-3.98506 -0.26409,-4.50119 -0.61215,-1.36837 -2.31659,-2.13657 -3.92504,-1.77647 z"
   id="path2-0"
   style="fill:#005b9f;fill-opacity:1;stroke:none;stroke-width:0.0120032" /><path
   d="m 342.50793,135.78644 c -0.15604,0.0241 -0.18005,0.81622 -0.18005,6.48172 v 6.44572 l 1.11628,0.0239 c 1.06831,0.0239 1.10431,0.0125 1.1163,-0.24008 0.048,-1.04427 0.036,-12.48329 -0.0125,-12.60333 -0.06,-0.13207 -1.52441,-0.21606 -2.04053,-0.10801 z"
   id="path3"
   style="fill:#005b9f;fill-opacity:1;stroke:none;stroke-width:0.0120032" /><path
   d="m 348.83362,135.87047 c -1.0803,0.27606 -1.96854,1.1163 -2.2446,2.08855 -0.0721,0.25207 -0.12005,2.52067 -0.12005,5.61751 v 5.19736 l 1.20032,-0.0239 1.20033,-0.0125 v -4.96933 c 0,-5.05334 0.024,-5.30542 0.45611,-5.6295 0.19206,-0.14404 0.56417,-0.14404 0.87625,0 0.24005,0.10802 0.33608,0.36011 1.8845,5.12537 1.15231,3.52893 1.45237,4.32116 1.75245,4.60924 0.52815,0.51613 1.70447,0.99625 2.29261,0.96024 1.60845,-0.13207 2.70073,-0.82821 3.19286,-2.04055 0.19206,-0.46811 0.24006,-10.97091 0.048,-10.99492 -0.57615,-0.06 -2.02853,-0.036 -2.13656,0.036 -0.10801,0.06 -0.14403,1.38037 -0.15604,4.80128 -0.024,5.80954 0,5.32942 -0.28807,5.6175 -0.3361,0.33608 -0.99627,0.32407 -1.22433,-0.024 -0.18006,-0.30008 -0.18006,-0.31209 -1.8365,-5.35343 -0.62416,-1.94451 -1.23633,-3.67298 -1.35635,-3.84103 -0.66017,-1.03227 -2.17257,-1.5364 -3.54094,-1.16431 z"
   id="path4"
   style="fill:#005b9f;fill-opacity:1;stroke:none;stroke-width:0.0120032" /><path
   d="m 365.66208,135.88247 c -1.69245,0.30007 -2.67672,0.92424 -3.49291,2.19658 -0.64819,1.04429 -0.97228,2.43665 -0.97228,4.28515 0,3.30088 1.18832,5.28142 3.63698,6.0616 0.88823,0.28808 3.24087,0.39612 4.51321,0.21606 3.09682,-0.43212 4.63322,-2.56868 4.62122,-6.4097 0,-1.21232 -0.0125,-1.32036 -0.26407,-2.40064 -0.45613,-2.00454 -1.75246,-3.33689 -3.70899,-3.84103 -0.93625,-0.24006 -3.25288,-0.30008 -4.33316,-0.108 z m 3.85304,2.2566 c 1.44038,0.31209 2.17258,1.68045 2.17258,4.09309 0,2.06455 -0.50414,3.30088 -1.57242,3.90105 -0.50414,0.27605 -0.66018,0.30007 -2.26861,0.31207 -0.94825,0.0125 -1.94452,-0.036 -2.20858,-0.0959 -1.30836,-0.28807 -2.07657,-1.54839 -2.16059,-3.54093 -0.0839,-1.84851 0.24008,-3.19286 0.94827,-3.94906 0.4441,-0.48013 0.7802,-0.64816 1.47638,-0.7562 0.69619,-0.10801 3.04882,-0.0721 3.61297,0.036 z"
   id="path5"
   style="fill:#005b9f;fill-opacity:1;stroke:none;stroke-width:0.0120032" /><path
   d="m 375.4927,135.78644 c -0.14403,0.0241 -0.20404,0.21605 -0.24005,0.78022 -0.0241,0.4081 -0.0241,0.91222 0,1.10427 l 0.036,0.37211 1.5004,-0.0125 c 0.91224,0 1.53641,0.036 1.58443,0.12005 0.048,0.06 0.0841,2.47266 0.0841,5.34143 v 5.22135 h 1.1403 1.1403 v -5.3414 -5.34142 h 1.50041 1.50039 v -1.1163 c 0,-0.60016 -0.0241,-1.11629 -0.06,-1.11629 -0.15604,-0.036 -8.01813,-0.048 -8.18617,-0.0125 z"
   id="path6"
   style="fill:#005b9f;stroke:none;stroke-width:0.0120032;fill-opacity:1" /><path
   d="m 388.42015,135.78644 c -0.94826,0.16805 -1.60843,0.67218 -1.94452,1.46439 -0.10801,0.22805 -0.48013,1.24834 -0.82821,2.2446 -0.98427,2.78473 -1.89651,5.34142 -2.44866,6.87783 -0.27607,0.7562 -0.56414,1.60841 -0.66018,1.8965 l -0.15604,0.50413 1.18832,-0.0239 1.1883,-0.0125 0.19206,-0.55214 c 0.12004,-0.3001 0.27607,-0.72021 0.34811,-0.92425 l 0.15604,-0.3721 h 3.46892 3.46892 l 0.33609,0.93624 0.33608,0.93626 1.18833,-0.0125 c 0.64817,-0.0125 1.18831,-0.0361 1.18831,-0.048 0,-0.0239 -0.70819,-2.02855 -1.57241,-4.45319 -2.9408,-8.25821 -2.70072,-7.70605 -3.58896,-8.16218 -0.51614,-0.26407 -1.36836,-0.39611 -1.8605,-0.30008 z m 1.56042,4.28514 c 1.44038,4.05708 1.58441,4.5012 1.5124,4.5132 -0.31208,0.048 -5.10135,0.036 -5.17338,-0.0125 -0.13207,-0.096 2.11257,-6.27766 2.35262,-6.44571 0.40812,-0.30008 0.63617,0.06 1.30836,1.94452 z"
   id="path7-2"
   style="fill:#005b9f;stroke:none;stroke-width:0.0120032;fill-opacity:1" /><path
   d="m 396.8584,135.93049 c -0.084,0.37209 -0.0125,8.36622 0.0721,9.0024 0.36009,2.42464 2.61671,3.98506 5.66552,3.88903 2.67671,-0.084 4.36916,-1.24836 4.98132,-3.40892 0.10801,-0.3841 0.14404,-1.83647 0.15604,-5.07735 0.0125,-2.48466 -0.0125,-4.5252 -0.048,-4.53721 -0.30009,-0.048 -1.8965,-0.048 -2.04055,0 -0.15604,0.06 -0.18004,0.64817 -0.19205,4.45319 0,4.21313 -0.0125,4.39317 -0.25207,4.8613 -0.50412,0.97225 -1.26033,1.38036 -2.60469,1.42838 -1.54841,0.0721 -2.68872,-0.46813 -3.21686,-1.48841 -0.26407,-0.52813 -0.26407,-0.60015 -0.27607,-4.88529 0,-3.781 -0.0241,-4.35716 -0.18005,-4.36917 -0.096,-0.0125 -0.60016,-0.024 -1.1043,-0.036 -0.7322,-0.0125 -0.93624,0.0241 -0.96024,0.16804 z"
   id="path8-4"
   style="fill:#005b9f;stroke:none;stroke-width:0.0120032;fill-opacity:1" /><path
   d="m 409.72582,135.78644 c -0.0838,0.036 -0.12005,2.30461 -0.12005,6.51773 v 6.46972 l 1.1403,-0.0239 1.14032,-0.0125 v -2.38863 c 0,-1.30836 0.024,-2.37664 0.06,-2.37664 0.048,0 2.91678,1.74047 6.54174,3.94904 0.88824,0.55217 1.65646,1.02027 1.70445,1.0563 0.048,0.0239 0.0841,-0.57617 0.0841,-1.33235 l -0.0125,-1.38038 -2.60469,-1.45239 c -2.2566,-1.24833 -2.53268,-1.44038 -2.17258,-1.45239 2.40064,-0.036 3.64898,-0.66017 4.34516,-2.12457 0.3841,-0.81621 0.3841,-2.60469 -0.0125,-3.3969 -0.48012,-1.00826 -1.40437,-1.72845 -2.53267,-1.96853 -0.40811,-0.0959 -7.30994,-0.16804 -7.562,-0.084 z m 7.39397,2.46065 c 0.85222,0.44412 1.00826,1.66845 0.31209,2.46066 -0.36011,0.40811 -0.70819,0.45613 -3.20486,0.45613 l -2.28062,-0.0125 -0.036,-1.56041 -0.036,-1.57243 2.43663,0.0125 c 2.00454,0.0125 2.50867,0.048 2.80874,0.21605 z"
   id="path9-8"
   style="fill:#005b9f;stroke:none;stroke-width:0.0120032;fill-opacity:1" /><path
   d="m 424.84984,135.83446 c -0.96024,0.10802 -1.94451,0.58816 -2.43664,1.20031 -1.08028,1.34435 -0.99627,3.84103 0.16804,4.82528 l 0.3721,0.31208 -0.48012,0.52816 c -1.26034,1.36836 -1.0923,3.74499 0.34809,5.04135 1.02028,0.92424 1.20033,0.94821 5.54548,0.98427 l 3.80502,0.0239 v -1.12827 c 0,-0.99627 -0.0241,-1.12831 -0.20406,-1.14032 -0.12005,0 -1.75246,-0.0125 -3.63697,-0.024 -3.82903,-0.0241 -3.92505,-0.048 -4.27313,-0.86422 -0.30008,-0.7322 -0.21606,-1.18832 0.28806,-1.74047 l 0.46813,-0.48012 2.20859,-0.0125 c 1.21232,0 2.86876,0 3.685,0 l 1.46438,0.0125 v -1.14032 -1.14029 h -3.48094 c -3.769,0 -4.11709,-0.048 -4.50119,-0.63617 -0.51614,-0.79222 -0.25207,-1.87249 0.54014,-2.2326 0.38411,-0.16804 0.94825,-0.19206 3.93705,-0.19206 h 3.50494 v -1.14029 -1.14032 h -3.27689 c -1.78847,0 -3.61295,0.036 -4.04508,0.0841 z"
   id="path10-3"
   style="fill:#005b9f;stroke:none;stroke-width:0.0120032;fill-opacity:1" /></svg>
