<?xml version="1.0" encoding="utf-8"?>
<!-- Generator: Adobe Illustrator 27.9.0, SVG Export Plug-In . SVG Version: 6.00 Build 0)  -->
<svg version="1.1" id="Calque_1" xmlns="http://www.w3.org/2000/svg" xmlns:xlink="http://www.w3.org/1999/xlink" x="0px" y="0px"
	 viewBox="0 0 484 156" style="enable-background:new 0 0 484 156;" xml:space="preserve">
<style type="text/css">
	.st0{fill:#005B9F;}
</style>
<g>
	<g>
		<path class="st0" d="M158.1,56.8c0-3.6-0.4-7.2-1.3-10.5l49.9-38.8l-53.1,30c-0.6-1.2-1.2-2.3-1.9-3.3l31.1-26.2l-37.7,18.9
			l-31.6,27.5l32.3-17.2c3.2,5.8,5,12.6,5,19.7c0,22.5-18,40.7-40.3,40.7c-2.7,0-5.4-0.3-7.9-0.8L142.8,66L87.3,96.2
			c6.9,3.7,14.8,5.8,23.3,5.8C136.8,102,158.1,81.7,158.1,56.8"/>
	</g>
	<g>
		<path class="st0" d="M67.3,75.7c0.7,1.3,1.4,2.7,2.2,3.9l-33.1,26.6l39.3-19.5l31.6-28.4L75.1,76.1c-3.1-5.7-4.8-12.3-4.8-19.3
			c0-22.5,18-40.7,40.3-40.7c2.4,0,4.8,0.2,7.1,0.6l0.3,0.4L78,46.8l55.9-29.4c-6.8-3.6-15-5.8-23.3-5.8C84.3,11.6,63,31.8,63,56.8
			c0,3.6,0.4,7,1.2,10.3l-50,38.6L67.3,75.7z"/>
	</g>
</g>
<polygon class="st0" points="85.5,94.4 125.6,61.8 77.1,88.5 59.6,106.6 "/>
<polygon class="st0" points="143.9,24.8 160.8,7.5 135.6,18.9 96.2,50.7 "/>
<polygon class="st0" points="18.2,134.6 11.4,122.4 6.8,122.4 6.8,148.9 11.1,148.9 11.1,130.2 18.1,142.4 18.2,142.4 25.3,130.1 
	25.3,148.9 29.6,148.9 29.6,122.4 25,122.4 "/>
<rect x="35.2" y="122.4" class="st0" width="4.4" height="26.5"/>
<polygon class="st0" points="60.9,140.1 49.2,122.4 45.2,122.4 45.2,148.9 49.5,148.9 49.5,130.7 61.5,148.9 65.2,148.9 65.2,122.4 
	60.9,122.4 "/>
<polygon class="st0" points="74.9,137.5 85.9,137.5 85.9,133.6 74.9,133.6 74.9,126.3 87.3,126.3 87.3,122.4 70.6,122.4 70.6,148.9 
	87.5,148.9 87.5,144.9 74.9,144.9 "/>
<g>
	<g>
		<path class="st0" d="M100.8,133.7c-4.5-1.7-5.5-2.7-5.5-4.6v0c0-1.7,1.5-3.1,3.9-3.1c2.1,0,4.1,1,5.9,2.5l2.5-3.4
			c-2.4-2.1-5.3-3.1-8.3-3.1c-4.9,0-8.4,3.1-8.4,7.4v0.1c0,4.2,2.6,6.1,7.7,8c4.2,1.6,5.1,2.6,5.1,4.3v0c0,2-1.6,3.4-4.2,3.4
			c-2.8,0-5-1.4-7-3.1l-2.7,3.3c2.9,2.6,6.2,3.8,9.6,3.8c5,0,8.6-3,8.6-7.6v-0.1C108,137.6,105.7,135.6,100.8,133.7"/>
	</g>
	<g>
		<path class="st0" d="M135.1,131.4c0,2.9-2,5-5.3,5h-3.8v-9.9h3.8C133.1,126.4,135.1,128.1,135.1,131.4L135.1,131.4z M139.5,131.2
			c0-5.5-3.8-8.8-9.6-8.8h-8.5v26.5h4.4v-8.6h3.8C135.2,140.2,139.5,137.1,139.5,131.2L139.5,131.2L139.5,131.2z"/>
	</g>
</g>
<path class="st0" d="M146.9,138.7l3.8-10.6l3.8,10.6H146.9z M148.6,122.2l-9.7,26.7h4.4l2.2-6.2h10.3l2.2,6.2h4.6l-9.7-26.7H148.6z"
	/>
<g>
	<g>
		<path class="st0" d="M175.1,135.6h-4.7v-9.2h4.8c3.3,0,5.2,1.6,5.2,4.5v0.1C180.4,133.8,178.6,135.6,175.1,135.6 M184.9,130.9
			v-0.1c0-2.4-0.8-4.4-2.2-5.8c-1.6-1.6-4.1-2.5-7.1-2.5H166v26.5h4.4v-9.4h4.2c0.1,0,0.2,0,0.3,0l5.6,9.4h5.1l-6.2-10.3
			C182.6,137.5,184.9,134.9,184.9,130.9"/>
	</g>
</g>
<rect x="189.5" y="122.4" class="st0" width="4.4" height="26.5"/>
<g>
	<g>
		<path class="st0" d="M208.5,133.7c-4.5-1.7-5.5-2.7-5.5-4.6v0c0-1.7,1.5-3.1,3.9-3.1c2.1,0,4.1,1,5.9,2.5l2.5-3.4
			c-2.4-2.1-5.3-3.1-8.3-3.1c-4.9,0-8.4,3.1-8.4,7.4v0.1c0,4.2,2.6,6.1,7.6,8c4.2,1.6,5.1,2.6,5.1,4.3v0c0,2-1.6,3.4-4.2,3.4
			c-2.8,0-5-1.4-7-3.1l-2.6,3.3c2.9,2.6,6.2,3.8,9.6,3.8c5,0,8.6-3,8.6-7.6v-0.1C215.7,137.6,213.5,135.6,208.5,133.7"/>
	</g>
</g>
<rect x="251.9" y="49.2" class="st0" width="2.2" height="69.7"/>
<g>
	<g>
		<path class="st0" d="M310.3,79.8h-12.4V59.5h12.4c7.1,0,10.7,4.3,10.7,10.2C321,75.6,317.4,79.8,310.3,79.8 M310.5,53.7h-18.9v55
			h6.4v-23h12.5c10.6,0,17.2-6.8,17.2-16.1C327.6,60.3,321,53.7,310.5,53.7"/>
	</g>
	<g>
		<path class="st0" d="M356.4,78.9l-5.9-2.9c-4.9-2.4-8.6-4.2-8.6-9.2c0-5.4,4.6-8,9.5-8c4.9,0,9.5,2.5,12.3,6.9l4.6-3.6
			c-3.3-5.4-9.5-9.3-16.9-9.3c-8.7,0-16.2,5.6-16.2,14.3c0,7.8,5.9,11.7,12.1,14.8l6,2.9c5.3,2.6,9,4.6,9,9.7
			c0,5.6-4.5,9.2-10.8,9.2c-6.9,0-11.7-4.3-15-9.4l-4.7,3.6c4.1,7.2,11.2,11.8,19.8,11.8c9.9,0,17.3-6.1,17.3-15.3
			C369,86.8,364.2,82.8,356.4,78.9"/>
	</g>
</g>
<polygon class="st0" points="386.6,53.7 380.2,53.7 380.2,108.7 412.1,108.7 412.1,102.8 386.6,102.8 "/>
<g>
	<g>
		<path class="st0" d="M476.4,74.6c-1.2-5-3.7-9.6-7.2-13.1l7.2-7.2V74.6z M476.4,107.3l-7.2-7.2c3.5-3.6,6.1-8.1,7.2-13.1V107.3z
			 M454.5,107.8c5.4-1,10.3-3.6,14.1-7.2l7.2,7.2H454.5z M434,102.6l15.3-11.2c-6.9,0.1-12.7,4.3-15.3,10.2l-0.3,0.8
			c-1-0.7-2-1.5-2.9-2.4l5.5-5.6l-1.2,3.6c3.2-4.5,8.4-7.4,14.3-7.4c1.8,0,3.5,0.3,5.1,0.8c-3.2-2.5-5.3-6.4-5.3-10.8
			c0-4.3,2-8.1,5-10.6l0.1,0.3l0,0l0.1,0.3c2-1.7,4.6-2.8,7.5-3l-4.9,4.9h-1.7l-0.6-2c-2.9,2.4-4.8,6-4.8,10c0,6.7,5.1,12.2,11.7,13
			l0.8,0.8c-1-0.1-1.9-0.2-2.8-0.4c1.6,1.1,3,2.5,4.1,4.1l-1.2-3.6l0,0l5.6,5.6c-0.9,0.9-1.9,1.7-2.9,2.4l-0.3-1
			c-2.6-5.8-8.4-9.9-15.1-10l15.2,11.2c-4.4,3.1-9.7,4.9-15.5,4.9C443.7,107.5,438.4,105.7,434,102.6 M423.1,107.8l7.2-7.2
			c3.8,3.7,8.7,6.2,14.1,7.2H423.1z M422.6,86.9c1.2,5,3.7,9.6,7.2,13.1l-7.2,7.2V86.9z M422.6,54.5l7.1,7.1c-3.5,3.6-6,8-7.1,13
			V54.5z M443.3,54c-5,1.2-9.5,3.7-13.1,7.1l-7.1-7.1H443.3z M439.9,84.1l-3,8.9l-6.5,6.6c-4.7-4.7-7.6-11.2-7.7-18.3H436
			L439.9,84.1z M424,72.6l11,8h-12.4c0.1-7.2,3-13.6,7.6-18.4l10.5,10.4H424z M449.5,54l-5.9,18.6h-1.9l-11-11
			C435.6,56.9,442.2,54,449.5,54C449.5,54,449.5,54,449.5,54 M468.1,61.5l-5.4,5.4c-3.1,0-6,1.1-8.2,2.9l-5-15.8
			C456.8,54,463.3,56.9,468.1,61.5 M474.6,72.9l-0.4,0.3c-0.1-0.2-0.3-0.4-0.5-0.6c0,0,0,0,0,0c0.2,0.2,0.3,0.4,0.5,0.6L474.6,72.9
			l0.5-0.3h-0.7h-0.2c-2.4-3.2-6.1-5.4-10.4-5.6l4.9-4.9c3.5,3.5,6,8,7.1,13C475.4,74.3,475,73.6,474.6,72.9 M464.1,80.6l9.8-7.2
			l0,0l0.1-0.1c1.4,2.1,2.2,4.5,2.3,7.2C476.2,80.5,464.1,80.5,464.1,80.6z M458.1,72.6l5-5c4.1,0,7.8,2,10.2,5H458.1z M475.8,86.1
			c-1,5.2-3.6,9.8-7.2,13.4l-5.1-5.1C469,94.3,473.8,90.9,475.8,86.1 M463.1,93.7c-0.1,0-0.2,0-0.3,0l-0.8-0.8l-2.9-8.8l4-2.9h13.1
			C475.9,88.2,470.2,93.7,463.1,93.7 M475.6,54l-7,7c-3.5-3.4-8-5.9-13-7H475.6z M421.9,53.3v27.4l0,0c0,0,0,0,0,0v27.7h55.1V53.3
			H421.9z"/>
	</g>
</g>
</svg>
